<svg width="113" height="113" viewBox="0 0 113 113" fill="none" xmlns="http://www.w3.org/2000/svg">
<g id="2" clip-path="url(#clip0_407_149)">
<rect width="112.112" height="112.112" transform="translate(0.111328)" fill="#181818"/>
<path id="Union" fill-rule="evenodd" clip-rule="evenodd" d="M84.1952 56.0559H74.1051V0H72.984V56.0559H68.4995V0H67.3784V56.0559H62.8939V0H61.7728V56.0559H57.2883V0H56.1672V56.0559H0.111328V57.177H56.1672V61.6615H0.111328V62.7826H56.1672V67.2671H0.111328V68.3882H56.1672V72.8727H0.111328V73.9938H56.1672V84.0839C56.1672 99.5633 68.7158 112.112 84.1952 112.112C99.6746 112.112 112.223 99.5633 112.223 84.0839C112.223 68.6044 99.6746 56.0559 84.1952 56.0559ZM61.7728 61.6615H57.2883V57.177H61.7728V61.6615ZM62.8939 61.6615H67.3784V57.177H62.8939V61.6615ZM68.4995 61.6615H72.984V57.177H68.4995V61.6615ZM74.1051 61.6615V57.177H84.1952C99.0554 57.177 111.102 69.2236 111.102 84.0839C111.102 98.9441 99.0554 110.991 84.1952 110.991C69.335 110.991 57.2883 98.9441 57.2883 84.0839V73.9938H61.7728V84.0839C61.7728 96.4674 71.8117 106.506 84.1952 106.506C96.5787 106.506 106.618 96.4674 106.618 84.0839C106.618 71.7003 96.5787 61.6615 84.1952 61.6615H74.1051ZM61.7728 72.8727H57.2883V68.3882H61.7728V72.8727ZM62.8939 73.9938V84.0839C62.8939 95.8482 72.4308 105.385 84.1952 105.385C95.9595 105.385 105.496 95.8482 105.496 84.0839C105.496 72.3195 95.9595 62.7826 84.1952 62.7826H74.1051V67.2671H84.1952C93.4828 67.2671 101.012 74.7962 101.012 84.0839C101.012 93.3715 93.4828 100.901 84.1952 100.901C74.9075 100.901 67.3784 93.3715 67.3784 84.0839V73.9938H62.8939ZM68.4995 67.2671H72.984V62.7826H68.4995V67.2671ZM67.3784 62.7826V67.2671H62.8939V62.7826H67.3784ZM67.3784 68.3882V72.8727H62.8939V68.3882H67.3784ZM68.4995 84.0839V73.9938H72.984V84.0839C72.984 90.2756 78.0034 95.295 84.1952 95.295C90.3869 95.295 95.4064 90.2756 95.4064 84.0839C95.4064 77.8921 90.3869 72.8727 84.1952 72.8727H74.1051V68.3882H84.1952C92.8637 68.3882 99.8908 75.4154 99.8908 84.0839C99.8908 92.7523 92.8637 99.7795 84.1952 99.7795C75.5267 99.7795 68.4995 92.7523 68.4995 84.0839ZM74.1051 84.0839C74.1051 89.6564 78.6226 94.1739 84.1952 94.1739C89.7678 94.1739 94.2852 89.6564 94.2852 84.0839C94.2852 78.5113 89.7678 73.9938 84.1952 73.9938H74.1051V84.0839ZM72.984 72.8727V68.3882H68.4995V72.8727H72.984ZM61.7728 67.2671H57.2883V62.7826H61.7728V67.2671Z" fill="url(#paint0_linear_407_149)"/>
</g>
<defs>
<linearGradient id="paint0_linear_407_149" x1="102.133" y1="105.946" x2="0.111333" y2="-2.24223" gradientUnits="userSpaceOnUse">
<stop stop-color="white"/>
<stop offset="1" stop-color="white" stop-opacity="0"/>
</linearGradient>
<clipPath id="clip0_407_149">
<rect width="112.112" height="112.112" fill="white" transform="translate(0.111328)"/>
</clipPath>
</defs>
</svg>
