<svg width="113" height="113" viewBox="0 0 113 113" fill="none" xmlns="http://www.w3.org/2000/svg">
<g id="5" opacity="0.3">
<rect width="112.112" height="112.112" transform="translate(0.445312)" fill="#181818"/>
<path id="1" d="M25.9932 38.4417L56.502 20.8275L87.0107 38.4417V73.6702L56.502 91.2845L25.9932 73.6702V38.4417Z" stroke="url(#paint0_linear_407_124)" stroke-width="1.12112"/>
<path id="2" d="M29.876 40.6838L56.5011 25.3118L83.1262 40.6838V71.4279L56.5011 86.7999L29.876 71.4279V40.6838Z" stroke="url(#paint1_linear_407_124)" stroke-width="1.12112"/>
<path id="3" d="M33.7598 42.926L56.5012 29.7962L79.2427 42.926V69.1855L56.5012 82.3153L33.7598 69.1855V42.926Z" stroke="url(#paint2_linear_407_124)" stroke-width="1.12112"/>
<path id="4" d="M37.6445 45.1684L56.5023 34.2808L75.3601 45.1684V66.9434L56.5023 77.831L37.6445 66.9434V45.1684Z" stroke="url(#paint3_linear_407_124)" stroke-width="1.12112"/>
<path id="5_2" d="M41.5274 47.4105L56.5015 38.7652L71.4756 47.4105V64.7011L56.5015 73.3464L41.5274 64.7011V47.4105Z" stroke="url(#paint4_linear_407_124)" stroke-width="1.12112"/>
<path id="Center" d="M56.5006 42.6025L68.1516 49.3292V62.7827L56.5006 69.5094L44.8496 62.7827V49.3292L56.5006 42.6025Z" fill="url(#paint5_radial_407_124)"/>
</g>
<defs>
<linearGradient id="paint0_linear_407_124" x1="44.7302" y1="20.1802" x2="71.6371" y2="91.9317" gradientUnits="userSpaceOnUse">
<stop stop-color="white"/>
<stop offset="1" stop-color="white" stop-opacity="0"/>
</linearGradient>
<linearGradient id="paint1_linear_407_124" x1="46.2008" y1="24.6645" x2="69.7443" y2="87.4472" gradientUnits="userSpaceOnUse">
<stop stop-color="white"/>
<stop offset="1" stop-color="white" stop-opacity="0"/>
</linearGradient>
<linearGradient id="paint2_linear_407_124" x1="47.6724" y1="29.1489" x2="67.8525" y2="82.9626" gradientUnits="userSpaceOnUse">
<stop stop-color="white"/>
<stop offset="1" stop-color="white" stop-opacity="0"/>
</linearGradient>
<linearGradient id="paint3_linear_407_124" x1="49.145" y1="33.6335" x2="65.9617" y2="78.4783" gradientUnits="userSpaceOnUse">
<stop stop-color="white"/>
<stop offset="1" stop-color="white" stop-opacity="0"/>
</linearGradient>
<linearGradient id="paint4_linear_407_124" x1="50.6156" y1="38.1179" x2="64.069" y2="73.9937" gradientUnits="userSpaceOnUse">
<stop stop-color="white"/>
<stop offset="1" stop-color="white" stop-opacity="0"/>
</linearGradient>
<radialGradient id="paint5_radial_407_124" cx="0" cy="0" r="1" gradientUnits="userSpaceOnUse" gradientTransform="translate(56.5006 56.056) rotate(90) scale(13.4534 13.4534)">
<stop stop-color="white" stop-opacity="0.9"/>
<stop offset="1" stop-color="white" stop-opacity="0"/>
</radialGradient>
</defs>
</svg>
