<svg width="113" height="113" viewBox="0 0 113 113" fill="none" xmlns="http://www.w3.org/2000/svg">
<g id="6">
<rect width="112.112" height="112.112" transform="translate(0.556641)" fill="#181818"/>
<path id="Triangles" fill-rule="evenodd" clip-rule="evenodd" d="M56.6119 26.907L83.5187 75.5129H77.1123L83.5187 87.0857H77.1123L83.5187 98.6586H29.7051L36.1115 87.0857H29.7051L36.1115 75.5129H29.7051L56.6119 26.907ZM37.3929 75.5129L31.6071 85.9646H36.7321L42.5179 75.5129H37.3929ZM43.1385 74.3918H38.0135L56.6119 40.7947L75.2103 74.3918H70.0853L56.6119 50.0527L43.1385 74.3918ZM43.7993 75.5129L38.0135 85.9646H75.2103L69.4245 75.5129H43.7993ZM68.8039 74.3918H44.4199L56.6119 52.3675L68.8039 74.3918ZM70.706 75.5129L76.4917 85.9646H81.6167L75.8309 75.5129H70.706ZM76.4917 74.3918L56.6119 38.4798L36.7321 74.3918H31.6071L56.6119 29.2218L81.6167 74.3918H76.4917ZM31.6071 97.5374L37.3929 87.0857H75.8309L81.6167 97.5374H31.6071Z" fill="url(#paint0_linear_407_121)"/>
<path id="Star 1" d="M56.6115 13.4534L57.5947 17.8063L61.368 15.4236L58.9853 19.1968L63.3382 20.1801L58.9853 21.1633L61.368 24.9366L57.5947 22.5539L56.6115 26.9068L55.6282 22.5539L51.855 24.9366L54.2377 21.1633L49.8848 20.1801L54.2377 19.1968L51.855 15.4236L55.6282 17.8063L56.6115 13.4534Z" fill="url(#paint1_radial_407_121)"/>
</g>
<defs>
<linearGradient id="paint0_linear_407_121" x1="56.6119" y1="26.907" x2="56.3117" y2="117.754" gradientUnits="userSpaceOnUse">
<stop stop-color="white" stop-opacity="0.9"/>
<stop offset="1" stop-color="white" stop-opacity="0"/>
</linearGradient>
<radialGradient id="paint1_radial_407_121" cx="0" cy="0" r="1" gradientUnits="userSpaceOnUse" gradientTransform="translate(56.6115 20.1801) rotate(90) scale(6.72671)">
<stop stop-color="white"/>
<stop offset="1" stop-color="#C4C4C4" stop-opacity="0"/>
</radialGradient>
</defs>
</svg>
