<svg width="92" height="113" viewBox="0 0 92 113" fill="none" xmlns="http://www.w3.org/2000/svg">
<g id="7" opacity="0.3">
<rect width="112.112" height="112.112" transform="translate(0.667969)" fill="#181818"/>
<path id="Ellipse 4" d="M69.6168 56.056C69.6168 65.9134 68.1175 74.8126 65.7121 81.2271C64.5086 84.4365 63.089 86.9947 61.5412 88.7406C59.9927 90.487 58.3636 91.3712 56.7239 91.3712C55.0843 91.3712 53.4551 90.487 51.9067 88.7406C50.3588 86.9947 48.9393 84.4365 47.7358 81.2271C45.3303 74.8126 43.8311 65.9134 43.8311 56.056C43.8311 46.1986 45.3303 37.2993 47.7358 30.8848C48.9393 27.6754 50.3588 25.1172 51.9067 23.3714C53.4551 21.6249 55.0843 20.7407 56.7239 20.7407C58.3636 20.7407 59.9927 21.6249 61.5412 23.3714C63.089 25.1172 64.5086 27.6754 65.7121 30.8848C68.1175 37.2993 69.6168 46.1986 69.6168 56.056Z" stroke="url(#paint0_linear_407_116)" stroke-width="1.12112"/>
<path id="Ellipse 7" d="M56.7234 43.1631C66.5808 43.1631 75.4801 44.6624 81.8946 47.0678C85.104 48.2713 87.6622 49.6909 89.408 51.2387C91.1545 52.7872 92.0387 54.4163 92.0387 56.056C92.0387 57.6956 91.1545 59.3248 89.408 60.8732C87.6622 62.421 85.104 63.8406 81.8946 65.0441C75.4801 67.4495 66.5808 68.9488 56.7234 68.9488C46.866 68.9488 37.9668 67.4495 31.5523 65.0441C28.3429 63.8406 25.7847 62.421 24.0388 60.8732C22.2923 59.3248 21.4082 57.6956 21.4082 56.056C21.4082 54.4163 22.2923 52.7872 24.0388 51.2387C25.7847 49.6909 28.3429 48.2713 31.5523 47.0678C37.9668 44.6624 46.866 43.1631 56.7234 43.1631Z" stroke="url(#paint1_linear_407_116)" stroke-width="1.12112"/>
<path id="Ellipse 5" d="M65.8401 46.9393C72.8103 53.9096 78.0429 61.2624 80.8777 67.4991C82.2961 70.6194 83.1012 73.4322 83.2412 75.7612C83.3813 78.091 82.8545 79.8682 81.6951 81.0276C80.5356 82.187 78.7585 82.7138 76.4286 82.5737C74.0996 82.4338 71.2869 81.6286 68.1666 80.2102C61.9299 77.3754 54.577 72.1428 47.6068 65.1726C40.6366 58.2023 35.404 50.8495 32.5691 44.6128C31.1508 41.4925 30.3456 38.6797 30.2056 36.3507C30.0656 34.0209 30.5924 32.2437 31.7518 31.0843C32.9112 29.9249 34.6884 29.3981 37.0182 29.5381C39.3472 29.6781 42.1599 30.4833 45.2803 31.9017C51.517 34.7365 58.8698 39.9691 65.8401 46.9393Z" stroke="url(#paint2_linear_407_116)" stroke-width="1.12112"/>
<path id="Ellipse 6" d="M31.7518 81.0276C30.5924 79.8682 30.0656 78.091 30.2056 75.7612C30.3456 73.4322 31.1508 70.6194 32.5691 67.4991C35.404 61.2624 40.6366 53.9096 47.6068 46.9393C54.577 39.9691 61.9299 34.7365 68.1666 31.9017C71.2869 30.4833 74.0996 29.6781 76.4286 29.5381C78.7585 29.3981 80.5356 29.9249 81.6951 31.0843C82.8545 32.2437 83.3813 34.0209 83.2412 36.3507C83.1012 38.6797 82.2961 41.4925 80.8777 44.6128C78.0429 50.8495 72.8103 58.2023 65.8401 65.1726C58.8698 72.1428 51.517 77.3754 45.2803 80.2102C42.1599 81.6286 39.3472 82.4338 37.0182 82.5737C34.6884 82.7138 32.9112 82.187 31.7518 81.0276Z" stroke="url(#paint3_linear_407_116)" stroke-width="1.12112"/>
</g>
<defs>
<linearGradient id="paint0_linear_407_116" x1="56.7239" y1="20.1802" x2="56.7239" y2="91.9317" gradientUnits="userSpaceOnUse">
<stop stop-color="white"/>
<stop offset="1" stop-color="white" stop-opacity="0"/>
</linearGradient>
<linearGradient id="paint1_linear_407_116" x1="20.8477" y1="56.056" x2="92.5992" y2="56.056" gradientUnits="userSpaceOnUse">
<stop stop-color="white"/>
<stop offset="1" stop-color="white" stop-opacity="0"/>
</linearGradient>
<linearGradient id="paint2_linear_407_116" x1="31.3554" y1="30.688" x2="82.0914" y2="81.424" gradientUnits="userSpaceOnUse">
<stop stop-color="white"/>
<stop offset="1" stop-color="white" stop-opacity="0"/>
</linearGradient>
<linearGradient id="paint3_linear_407_116" x1="82.0915" y1="30.688" x2="31.3555" y2="81.424" gradientUnits="userSpaceOnUse">
<stop stop-color="white"/>
<stop offset="1" stop-color="white" stop-opacity="0"/>
</linearGradient>
</defs>
</svg>
